<svg xmlns="http://www.w3.org/2000/svg" width="720" height="140" viewBox="0 0 720 140" font-family="-apple-system,BlinkMacSystemFont,Segoe UI,Helvetica,Arial,sans-serif"><style>svg{--cf-bg:#0d1117;--cf-bg-alt:#161b22;--cf-border:#21262d;--cf-text:#e6edf3;--cf-text-dim:#8b949e;--cf-text-faint:#6e7681;--cf-accent:#5eead4;--cf-accent-soft:rgba(94,234,212,0.16);--cf-green:#3fb950;--cf-amber:#d29922;--cf-red:#f85149;--cf-spark:#5eead4;--cf-spark-bg:rgba(94,234,212,0.18)}@media (prefers-color-scheme: light){svg{--cf-bg:#ffffff;--cf-bg-alt:#f6f8fa;--cf-border:#d0d7de;--cf-text:#1f2328;--cf-text-dim:#656d76;--cf-text-faint:#8c959f;--cf-accent:#0d9488;--cf-accent-soft:rgba(13,148,136,0.12);--cf-green:#1a7f37;--cf-amber:#9a6700;--cf-red:#cf222e;--cf-spark:#0d9488;--cf-spark-bg:rgba(13,148,136,0.12)}}</style><rect width="720" height="140" rx="12" fill="var(--cf-bg)" stroke="var(--cf-border)"/><text x="18" y="26" font-size="13" font-weight="600" fill="var(--cf-text)">braedonsaunders/appkit</text><text x="702" y="26" text-anchor="end" font-size="10" fill="var(--cf-text-faint)" font-family="ui-monospace,SFMono-Regular,Menlo,monospace">@1750a30</text><g transform="translate(18,46)"><text x="0" y="0" font-size="9" font-weight="600" fill="var(--cf-text-dim)" letter-spacing="0.8">FILES</text><text x="0" y="28" font-size="22" font-weight="700" fill="var(--cf-text)">972</text><g transform="translate(0,40)"><svg width="64" height="14" viewBox="0 0 64 14" preserveAspectRatio="none"><path d="M0 14 L3.76 8.84 L7.53 6.63 L11.29 6.26 L15.06 5.89 L18.82 5.89 L22.59 5.53 L26.35 5.53 L30.12 5.53 L33.88 5.16 L37.65 4.79 L41.41 4.05 L45.18 0 L48.94 0 L52.71 0 L56.47 0 L60.24 0 L64 0 L64 14 L0 14 Z" fill="var(--cf-spark-bg)" stroke="none"/><path d="M0 14 L3.76 8.84 L7.53 6.63 L11.29 6.26 L15.06 5.89 L18.82 5.89 L22.59 5.53 L26.35 5.53 L30.12 5.53 L33.88 5.16 L37.65 4.79 L41.41 4.05 L45.18 0 L48.94 0 L52.71 0 L56.47 0 L60.24 0 L64 0" fill="none" stroke="var(--cf-spark)" stroke-width="1.4" stroke-linecap="round" stroke-linejoin="round"/></svg></g></g><g transform="translate(154.8,46)"><text x="0" y="0" font-size="9" font-weight="600" fill="var(--cf-text-dim)" letter-spacing="0.8">FNS</text><text x="0" y="28" font-size="22" font-weight="700" fill="var(--cf-text)">3.4K</text><g transform="translate(0,40)"><svg width="64" height="14" viewBox="0 0 64 14" preserveAspectRatio="none"><path d="M0 14 L3.76 6.54 L7.53 4.36 L11.29 4.36 L15.06 4.36 L18.82 4.36 L22.59 4.36 L26.35 4.36 L30.12 3.79 L33.88 3.79 L37.65 3.79 L41.41 2.75 L45.18 0.11 L48.94 0.11 L52.71 0.11 L56.47 0.11 L60.24 0.11 L64 0 L64 14 L0 14 Z" fill="var(--cf-spark-bg)" stroke="none"/><path d="M0 14 L3.76 6.54 L7.53 4.36 L11.29 4.36 L15.06 4.36 L18.82 4.36 L22.59 4.36 L26.35 4.36 L30.12 3.79 L33.88 3.79 L37.65 3.79 L41.41 2.75 L45.18 0.11 L48.94 0.11 L52.71 0.11 L56.47 0.11 L60.24 0.11 L64 0" fill="none" stroke="var(--cf-spark)" stroke-width="1.4" stroke-linecap="round" stroke-linejoin="round"/></svg></g></g><g transform="translate(291.6,46)"><text x="0" y="0" font-size="9" font-weight="600" fill="var(--cf-text-dim)" letter-spacing="0.8">LOC</text><text x="0" y="28" font-size="22" font-weight="700" fill="var(--cf-text)">168.7K</text><g transform="translate(0,40)"><svg width="64" height="14" viewBox="0 0 64 14" preserveAspectRatio="none"><path d="M0 14 L3.76 8.04 L7.53 6.22 L11.29 6.17 L15.06 6.11 L18.82 6.14 L22.59 6.09 L26.35 6.05 L30.12 5.64 L33.88 5.59 L37.65 5.51 L41.41 4.15 L45.18 0.36 L48.94 0.34 L52.71 0.33 L56.47 0.25 L60.24 0.25 L64 0 L64 14 L0 14 Z" fill="var(--cf-spark-bg)" stroke="none"/><path d="M0 14 L3.76 8.04 L7.53 6.22 L11.29 6.17 L15.06 6.11 L18.82 6.14 L22.59 6.09 L26.35 6.05 L30.12 5.64 L33.88 5.59 L37.65 5.51 L41.41 4.15 L45.18 0.36 L48.94 0.34 L52.71 0.33 L56.47 0.25 L60.24 0.25 L64 0" fill="none" stroke="var(--cf-spark)" stroke-width="1.4" stroke-linecap="round" stroke-linejoin="round"/></svg></g></g><g transform="translate(428.40000000000003,46)"><text x="0" y="0" font-size="9" font-weight="600" fill="var(--cf-text-dim)" letter-spacing="0.8">LANGS</text><text x="0" y="28" font-size="22" font-weight="700" fill="var(--cf-text)">12</text><g transform="translate(0,40)"><svg width="64" height="14" viewBox="0 0 64 14" preserveAspectRatio="none"><path d="M0 7 L3.76 7 L7.53 7 L11.29 7 L15.06 7 L18.82 7 L22.59 7 L26.35 7 L30.12 7 L33.88 7 L37.65 7 L41.41 7 L45.18 7 L48.94 7 L52.71 7 L56.47 7 L60.24 7 L64 7 L64 14 L0 14 Z" fill="var(--cf-spark-bg)" stroke="none"/><path d="M0 7 L3.76 7 L7.53 7 L11.29 7 L15.06 7 L18.82 7 L22.59 7 L26.35 7 L30.12 7 L33.88 7 L37.65 7 L41.41 7 L45.18 7 L48.94 7 L52.71 7 L56.47 7 L60.24 7 L64 7" fill="none" stroke="var(--cf-spark)" stroke-width="1.4" stroke-linecap="round" stroke-linejoin="round"/></svg></g></g><g transform="translate(565.2,46)"><text x="0" y="0" font-size="9" font-weight="600" fill="var(--cf-text-dim)" letter-spacing="0.8">TESTS</text><text x="0" y="28" font-size="22" font-weight="700" fill="var(--cf-text)">122</text><g transform="translate(0,40)"><svg width="64" height="14" viewBox="0 0 64 14" preserveAspectRatio="none"><path d="M0 14 L3.76 11.2 L7.53 8.4 L11.29 8.4 L15.06 8.4 L18.82 8.4 L22.59 8.4 L26.35 8.4 L30.12 8.4 L33.88 8.4 L37.65 5.6 L41.41 2.8 L45.18 0 L48.94 0 L52.71 0 L56.47 0 L60.24 0 L64 0 L64 14 L0 14 Z" fill="var(--cf-spark-bg)" stroke="none"/><path d="M0 14 L3.76 11.2 L7.53 8.4 L11.29 8.4 L15.06 8.4 L18.82 8.4 L22.59 8.4 L26.35 8.4 L30.12 8.4 L33.88 8.4 L37.65 5.6 L41.41 2.8 L45.18 0 L48.94 0 L52.71 0 L56.47 0 L60.24 0 L64 0" fill="none" stroke="var(--cf-spark)" stroke-width="1.4" stroke-linecap="round" stroke-linejoin="round"/></svg></g></g><a href="https://github.com/braedonsaunders/codeflow" target="_blank"><text x="702" y="130" text-anchor="end" font-size="9" fill="var(--cf-text-faint)">powered by <tspan font-weight="600" fill="var(--cf-accent)">codeflow</tspan></text></a></svg>